<?xml version="1.0" encoding="utf-8"?><svg viewBox="0 0 70 70" xmlns="http://www.w3.org/2000/svg" xmlns:xlink="http://www.w3.org/1999/xlink"><style>:root>svg{display:none}:root>svg:target{display:block}</style><svg fill="none" viewBox="0 0 40 40" id="delivery-car" xmlns="http://www.w3.org/2000/svg"><path d="M20.64 16a.677.677 0 00-.463.203l-3.517 3.506-2.167-2.16c-.606-.632-1.586.344-.953.95l2.644 2.637c.263.263.69.263.953 0l3.994-3.983c.44-.426.116-1.153-.49-1.153h-.001zM.667 21.333h4c.369 0 .666.298.666.667 0 .37-.297.667-.666.667h-4A.665.665 0 010 22c0-.37.297-.667.667-.667zm0-5.333h4c.369 0 .666.297.666.667 0 .369-.297.666-.666.666h-4A.665.665 0 010 16.667c0-.37.297-.667.667-.667zm0-5.333h4a.665.665 0 110 1.333h-4A.665.665 0 010 11.333c0-.369.297-.666.667-.666zm32 14.666a3.343 3.343 0 00-3.334 3.334c0 1.833 1.5 3.333 3.334 3.333C34.5 32 36 30.5 36 28.667c0-1.834-1.5-3.334-3.333-3.334zm0 1.334c1.112 0 2 .888 2 2s-.888 2-2 2-2-.888-2-2 .888-2 2-2zm-17.334-1.334A3.343 3.343 0 0012 28.667C12 30.5 13.5 32 15.333 32c1.834 0 3.334-1.5 3.334-3.333 0-1.834-1.5-3.334-3.334-3.334zm0 1.334c1.112 0 2 .888 2 2s-.888 2-2 2-2-.888-2-2 .888-2 2-2zM8.667 8c-1.096 0-2 .904-2 2v14.667c0 1.096.904 2 2 2h2.666c.902.013.902-1.347 0-1.334H8.667A.65.65 0 018 24.667V10a.65.65 0 01.667-.667H26a.65.65 0 01.667.667v15.333h-7.334c-.88 0-.864 1.347 0 1.334h9.334c.88 0 .872-1.334 0-1.334H28v-12h5.636l5.03 7.862v3.472a.65.65 0 01-.666.666h-1.333c-.872 0-.872 1.334 0 1.334H38c1.096 0 2-.904 2-2V21a.674.674 0 00-.104-.36l-5.333-8.333A.668.668 0 0034 12h-6v-2c0-1.096-.904-2-2-2H8.667z" fill="#006363"/></svg><svg fill="none" viewBox="0 0 70 70" id="media-right" xmlns="http://www.w3.org/2000/svg"><g clip-path="url(#bclip0_259_1727)" fill="#006363"><path d="M22.787 17.17h20.84c1.45 0 2.766.592 3.73 1.546a5.28 5.28 0 011.544 3.735v15.052a5.3 5.3 0 01-1.544 3.734 5.288 5.288 0 01-3.73 1.546H27.274l-7.482 7.614c.674-2.666 1.482-5.031 2.332-7.655a5.292 5.292 0 01-3.057-1.505 5.265 5.265 0 01-1.554-3.734V22.45c0-1.453.59-2.78 1.554-3.735a5.245 5.245 0 013.72-1.546zm20.84 1.39h-20.84a3.852 3.852 0 00-2.736 1.142 3.884 3.884 0 00-1.14 2.749v15.052c0 1.068.436 2.043 1.14 2.738a3.852 3.852 0 002.736 1.142H24l-.27.902c-.114.384-.59 1.836-1.046 3.226l3.803-3.91.207-.218h16.933a3.852 3.852 0 002.735-1.142 3.841 3.841 0 001.14-2.738V22.45a3.884 3.884 0 00-1.14-2.75 3.852 3.852 0 00-2.735-1.14z"/><path fill-rule="evenodd" clip-rule="evenodd" d="M26.177 23.01h3.202c.932 0 1.544.779 1.336 1.712-.207.944-1.14 1.722-2.082 1.722H25.44l.736-3.433zM25.243 28.05h3.191c.943 0 1.544.768 1.337 1.712-.197.944-1.14 1.712-2.083 1.712h-3.191l.746-3.423zM32.746 23.01h3.191c.943 0 1.544.779 1.337 1.712-.207.944-1.14 1.722-2.083 1.722H32l.747-3.433zM31.803 28.05h3.192c.943 0 1.544.768 1.337 1.712-.197.944-1.14 1.712-2.083 1.712h-3.192l.747-3.423zM38.736 26.07h3.191c.943 0 1.544.768 1.337 1.712-.197.944-1.14 1.712-2.083 1.712H37.99l.746-3.424zM37.802 31.11h3.192c.943 0 1.544.768 1.337 1.712-.208.944-1.14 1.711-2.083 1.711h-3.192l.746-3.423zM30.953 33.021h3.192c.943 0 1.544.768 1.336 1.712-.197.944-1.14 1.711-2.083 1.711h-3.191l.746-3.423z"/><path fill-rule="evenodd" clip-rule="evenodd" d="M48.518 19.291h.103c2.394 0 4.363 1.96 4.363 4.357v17.718a4.379 4.379 0 01-4.363 4.367h-.135l2.322 7.594-7.42-7.593H30.756a4.376 4.376 0 01-3.907-2.428c.176.01.342.02.518.02h16.384c3.109 0 5.648-2.54 5.648-5.653V22.32c0-1.11-.322-2.158-.881-3.029z"/><path fill-rule="evenodd" clip-rule="evenodd" d="M70.175 35.387c-.083 19.264-15.71 34.856-34.963 34.856C15.895 70.243.248 54.568.248 35.242c0-19.337 15.648-35 34.964-35h35.036v35.145h-.073zM35.212 3.945c17.264 0 31.253 14.014 31.253 31.297v.145c-.072 17.22-14.041 31.142-31.254 31.142-17.264 0-31.264-14.005-31.264-31.287 0-17.283 14-31.297 31.265-31.297z" stroke="#006363" stroke-width=".007"/></g><defs><clipPath id="bclip0_259_1727"><path fill="#fff" d="M0 0h70v70H0z"/></clipPath></defs></svg><svg fill="none" viewBox="0 0 70 70" id="phone-left" xmlns="http://www.w3.org/2000/svg"><g clip-path="url(#cclip0_259_1718)" fill-rule="evenodd" clip-rule="evenodd" fill="#006363"><path d="M36.613 16.7c10.22 1.616 15.061 6.463 16.137 16.155v.538c0 1.077 0 2.154 1.076 2.154 1.075 0 1.075-1.077 1.075-1.615v-.539c0-9.692-8.068-18.307-17.75-18.846-1.076 0-2.152-.538-2.69 1.077 0 1.077 1.614 1.077 2.152 1.077z"/><path d="M38.765 19.38c-1.076 0-2.151-.538-2.69 1.077 0 1.077 1.076 1.077 2.152 1.077 6.455 1.615 8.607 3.77 9.682 9.692v1.077c0 .539 0 1.616 1.076 1.077.538 0 1.076-.538 1.076-.538v-1.616c0-5.384-5.379-10.769-11.296-11.846z"/><path d="M39.303 24.229c-.537 0-1.075 0-1.613 1.076-.538 1.077.538 1.077 1.076 1.077 2.689.539 4.303 2.154 4.303 4.308 0 .538 0 1.077.537 1.077l.538.538c.538 0 .538-.538.538-.538.538 0 .538-.538.538-1.615 0-2.693-3.227-5.924-5.917-5.924zM52.213 44.163c-1.076-1.077-2.69-2.154-3.765-2.692-2.69-2.154-5.38-2.154-6.993.538-1.076 2.154-2.69 2.154-4.303 1.077-4.841-1.615-8.069-4.846-10.22-9.154-.538-1.077-.538-1.615-.538-2.154 0-1.076.538-2.153 1.614-3.23 1.075-.539 2.151-1.616 2.151-3.231 0-2.154-5.379-9.154-6.992-9.693-1.076-.538-2.152-.538-2.69 0-4.84 1.616-6.992 5.385-4.84 9.693 1.075 2.692 2.15 5.384 3.226 7.538 5.917 9.693 15.062 17.231 26.357 22.077.538 0 1.614.539 2.152.539 3.227 0 6.455-3.231 7.53-5.923 1.076-2.693-1.075-4.308-2.69-5.385z"/><path d="M69.926 35c-.538 19.385-15.599 35-34.963 35S0 54.385 0 35C0 15.615 15.599 0 34.963 0h34.963v35zM34.963 3.77c17.213 0 31.198 14 31.198 31.23S52.176 66.23 34.963 66.23 3.765 52.23 3.765 35 17.75 3.77 34.963 3.77z" stroke="#006363" stroke-width=".007"/></g><defs><clipPath id="cclip0_259_1718"><path fill="#fff" d="M0 0h70v70H0z"/></clipPath></defs></svg></svg>