<?xml version="1.0" encoding="utf-8"?><svg viewBox="0 0 70 70" xmlns="http://www.w3.org/2000/svg" xmlns:xlink="http://www.w3.org/1999/xlink"><style>:root>svg{display:none}:root>svg:target{display:block}</style><svg fill="none" viewBox="0 0 70 70" id="container" xmlns="http://www.w3.org/2000/svg"><path d="M68.723 30.84v-1.6c0-1.222-1.16-2.211-2.593-2.211-.99 0-1.837.478-2.28 1.166l-26.335-8.92c0-.034.013-.056.013-.09 0-.31-.287-.555-.652-.555a.69.69 0 00-.534.245l-1.094-.367a.718.718 0 00-.482 0l-3.44 1.167a2.032 2.032 0 01-.079-.49c0-1.166 1.12-2.11 2.489-2.11.365 0 .652-.244.652-.555v-2.211h2.54a.684.684 0 00.56-.278L40.695 9.3a.482.482 0 000-.556L37.49 4.01a.684.684 0 00-.56-.277h-.535V2.01c0-.311-.286-.556-.651-.556-.365 0-.652.245-.652.556v1.722h-2.736V.555c0-.31-.287-.555-.652-.555-.365 0-.651.244-.651.555v3.178h-.535a.684.684 0 00-.56.277l-3.205 4.733a.482.482 0 000 .556l3.205 4.732a.684.684 0 00.56.278h2.555v1.71c-1.786.267-3.14 1.59-3.14 3.178 0 .311.064.611.169.9L6.229 28.184c-.443-.677-1.29-1.144-2.255-1.144-1.433 0-2.593.989-2.593 2.21v1.578C.586 31.051 0 31.684 0 32.44v35.85C0 69.234.9 70 2.007 70h65.986C69.101 70 70 69.234 70 68.29V32.427c0-.722-.521-1.344-1.277-1.588zM30.921 13.187L28.094 9.01l2.827-4.177h5.643L39.39 9.01l-2.827 4.177H30.92zM64.827 29.24c0-.611.586-1.1 1.29-1.1.717 0 1.29.5 1.29 1.1v1.477h-2.593V29.24h.013zm-29.814-9.62l1.03.343c-.365.778-1.252 1.334-2.294 1.334a2.7 2.7 0 01-1.785-.656l3.049-1.022zm-28.42 9.63L30.7 21.086c.69.8 1.798 1.334 3.05 1.334 1.589 0 2.944-.845 3.504-2.033l26.27 8.898v1.467c-.574.055-1.095.3-1.434.71l-2.866 3.522a.745.745 0 01-.574.256h-47.3a.745.745 0 01-.574-.256L7.91 31.462c-.313-.39-.795-.622-1.33-.7V29.25h.013zm-3.896-.01c0-.611.587-1.1 1.29-1.1.717 0 1.29.5 1.29 1.1v1.477h-2.58V29.24zm66 39.038c0 .333-.313.6-.704.6H2.02c-.391 0-.704-.267-.704-.6v-35.85c0-.333.313-.6.704-.6H6.28c.234 0 .443.1.573.256l2.867 3.521c.378.456.99.734 1.642.734h47.313c.652 0 1.277-.278 1.642-.733l2.867-3.522a.766.766 0 01.573-.256h4.274c.391 0 .704.267.704.6v35.85h-.04z" fill="#006363"/><path d="M8.405 39.927c-1.772 0-3.206 1.222-3.206 2.733v20.597c0 1.51 1.434 2.732 3.206 2.732s3.205-1.222 3.205-2.733V42.66c0-1.511-1.433-2.733-3.205-2.733zm1.902 23.33c0 .9-.86 1.622-1.902 1.622-1.043 0-1.903-.734-1.903-1.623V42.66c0-.9.86-1.622 1.903-1.622 1.042 0 1.902.733 1.902 1.622v20.597zM19.05 39.927c-1.772 0-3.205 1.222-3.205 2.733v20.597c0 1.51 1.433 2.732 3.206 2.732 1.772 0 3.205-1.222 3.205-2.733V42.66c0-1.511-1.446-2.733-3.205-2.733zm1.903 23.33c0 .9-.86 1.622-1.902 1.622-1.043 0-1.903-.734-1.903-1.623V42.66c0-.9.86-1.622 1.903-1.622 1.042 0 1.902.733 1.902 1.622v20.597zM29.697 39.927c-1.773 0-3.206 1.222-3.206 2.733v20.597c0 1.51 1.433 2.732 3.206 2.732 1.772 0 3.205-1.222 3.205-2.733V42.66c0-1.511-1.446-2.733-3.205-2.733zm1.902 23.33c0 .9-.86 1.622-1.902 1.622-1.043 0-1.903-.734-1.903-1.623V42.66c0-.9.86-1.622 1.903-1.622 1.042 0 1.902.733 1.902 1.622v20.597zM40.33 39.927c-1.773 0-3.206 1.222-3.206 2.733v20.597c0 1.51 1.433 2.732 3.205 2.732 1.773 0 3.206-1.222 3.206-2.733V42.66c.013-1.511-1.433-2.733-3.206-2.733zm1.915 23.33c0 .9-.86 1.622-1.903 1.622-1.042 0-1.902-.734-1.902-1.623V42.66c0-.9.86-1.622 1.902-1.622 1.043 0 1.903.733 1.903 1.622v20.597zM50.975 39.927c-1.772 0-3.205 1.222-3.205 2.733v20.597c0 1.51 1.433 2.732 3.205 2.732 1.773 0 3.206-1.222 3.206-2.733V42.66c.013-1.511-1.433-2.733-3.206-2.733zm1.916 23.33c0 .9-.86 1.622-1.903 1.622-1.042 0-1.902-.734-1.902-1.623V42.66c0-.9.86-1.622 1.902-1.622 1.043 0 1.903.733 1.903 1.622v20.597zM61.621 39.927c-1.772 0-3.205 1.222-3.205 2.733v20.597c0 1.51 1.433 2.732 3.205 2.732 1.773 0 3.206-1.222 3.206-2.733V42.66c0-1.511-1.433-2.733-3.206-2.733zm1.903 23.33c0 .9-.86 1.622-1.903 1.622-1.042 0-1.902-.734-1.902-1.623V42.66c0-.9.86-1.622 1.902-1.622 1.043 0 1.903.733 1.903 1.622v20.597zM33.749 6.743c-1.472 0-2.671 1.022-2.671 2.267 0 1.244 1.199 2.266 2.671 2.266 1.472 0 2.658-1.022 2.658-2.266 0-1.245-1.199-2.267-2.658-2.267zm0 3.433c-.756 0-1.368-.522-1.368-1.155 0-.634.612-1.156 1.368-1.156.756 0 1.355.522 1.355 1.156 0 .633-.612 1.155-1.355 1.155z" fill="#006363"/></svg><svg fill="none" viewBox="0 0 70 70" id="like" xmlns="http://www.w3.org/2000/svg"><path d="M60.739 67.63H43.508a.85.85 0 00-.862.862c0 .539.323.862.862.862h17.23a.85.85 0 00.862-.862.85.85 0 00-.861-.861zM67.2 67.63h-2.154a.85.85 0 00-.861.862c0 .539.323.862.861.862H67.2a.85.85 0 00.861-.862.85.85 0 00-.861-.861zM19.815 10.015c.431 0 .862-.323.862-.861V1.615a.85.85 0 00-.862-.861c-.538 0-.861.323-.861.861v7.539c0 .43.323.861.861.861zM19.815 15.4a.85.85 0 00.862-.861v-1.077a.85.85 0 00-.862-.862c-.538 0-.861.323-.861.862v1.077c0 .43.323.861.861.861zM68.061 33.385c-.43-1.616-1.4-2.908-3.123-3.877-1.4-.862-3.23-1.292-5.061-1.292h-8.185c-.323-.216-.323-.324-.323-.539-.215-1.077 1.4-3.23 2.585-4.415.108-.108.108-.108.108-.216 5.815-11.2 0-16.154-.216-16.369 0 0-.107 0-.107-.108-1.508-.861-2.8-1.077-3.985-.43-2.585 1.4-3.123 5.923-3.23 6.892-.97 2.585-3.878 5.708-6.032 7.861C38.554 22.94 36.615 25.2 35 27.677c-1.83 2.8-3.123 4.63-3.662 5.385-1.184 1.507-2.584 1.615-2.584 1.615H26.06v-3.123a.85.85 0 00-.861-.861H11.63a.85.85 0 00-.86.861v2.585H2.584c-.431 0-.754.323-.754.861 0 .539.323.862.754.862h8.292v24.015H2.585c-.431 0-.754.323-.754.862 0 .538.215.646.754.646h8.292v1.83c0 .431.323.862.861.862h13.57a.85.85 0 00.861-.861v-2.37h2.046c.646 1.293 2.37 1.723 3.447 1.831h28.646c1.938-.323 3.23-1.184 3.984-2.584.862-1.616.431-3.554.108-4.631 2.585-1.939 2.261-5.385 1.615-7.431 3.123-2.692 2.154-6.57.862-8.615 1.184-2.154 1.723-4.2 1.184-6.031zM24.446 62.462H12.492V32.416h11.954v30.046zM65.37 38.769H54.277a.85.85 0 00-.862.862c0 .538.324.861.862.861h11.2c.646 1.077 2.261 4.416-.754 6.677H54.277a.85.85 0 00-.862.862c0 .538.324.861.862.861H64.4c.323 1.185 1.077 4.308-1.292 5.816h-8.831a.85.85 0 00-.862.861c0 .539.324.862.862.862h8.508c.215.754.538 2.154 0 3.338-.431.862-1.4 1.4-2.693 1.724H31.77c-.43 0-2.046-.324-2.261-1.185-.108-.43-.431-.646-.754-.646h-2.585v-23.37h2.692c.108 0 2.262 0 3.877-2.261a210.51 210.51 0 003.77-5.492c1.615-2.37 3.338-4.523 5.277-6.462 2.369-2.37 5.384-5.708 6.461-8.615v-.216c.108-1.292.646-4.846 2.37-5.707.645-.323 1.4-.216 2.369.323.43.43 4.738 4.63-.216 14.323-.646.646-3.338 3.554-2.907 5.707.107.539.43 1.293 1.4 1.724.107 0 .215.107.323.107h8.4c1.615 0 3.123.323 4.307 1.077 1.293.754 2.046 1.723 2.37 2.908.215 1.508-.216 3.123-1.293 5.061z" fill="#006363"/><path d="M18.415 53.415a3.125 3.125 0 00-3.123 3.123c0 1.724 1.4 3.124 3.123 3.124 1.724 0 3.123-1.4 3.123-3.123 0-1.724-1.4-3.124-3.123-3.124zm0 4.523c-.753 0-1.507-.646-1.507-1.507 0-.862.646-1.508 1.507-1.508.862 0 1.508.646 1.508 1.508 0 .861-.646 1.508-1.508 1.508z" fill="#006363"/></svg><svg fill="none" viewBox="0 0 70 70" id="media-right" xmlns="http://www.w3.org/2000/svg"><g clip-path="url(#cclip0_259_1727)" fill="#006363"><path d="M22.787 17.17h20.84c1.45 0 2.766.592 3.73 1.546a5.28 5.28 0 011.544 3.735v15.052a5.3 5.3 0 01-1.544 3.734 5.288 5.288 0 01-3.73 1.546H27.274l-7.482 7.614c.674-2.666 1.482-5.031 2.332-7.655a5.292 5.292 0 01-3.057-1.505 5.265 5.265 0 01-1.554-3.734V22.45c0-1.453.59-2.78 1.554-3.735a5.245 5.245 0 013.72-1.546zm20.84 1.39h-20.84a3.852 3.852 0 00-2.736 1.142 3.884 3.884 0 00-1.14 2.749v15.052c0 1.068.436 2.043 1.14 2.738a3.852 3.852 0 002.736 1.142H24l-.27.902c-.114.384-.59 1.836-1.046 3.226l3.803-3.91.207-.218h16.933a3.852 3.852 0 002.735-1.142 3.841 3.841 0 001.14-2.738V22.45a3.884 3.884 0 00-1.14-2.75 3.852 3.852 0 00-2.735-1.14z"/><path fill-rule="evenodd" clip-rule="evenodd" d="M26.177 23.01h3.202c.932 0 1.544.779 1.336 1.712-.207.944-1.14 1.722-2.082 1.722H25.44l.736-3.433zM25.243 28.05h3.191c.943 0 1.544.768 1.337 1.712-.197.944-1.14 1.712-2.083 1.712h-3.191l.746-3.423zM32.746 23.01h3.191c.943 0 1.544.779 1.337 1.712-.207.944-1.14 1.722-2.083 1.722H32l.747-3.433zM31.803 28.05h3.192c.943 0 1.544.768 1.337 1.712-.197.944-1.14 1.712-2.083 1.712h-3.192l.747-3.423zM38.736 26.07h3.191c.943 0 1.544.768 1.337 1.712-.197.944-1.14 1.712-2.083 1.712H37.99l.746-3.424zM37.802 31.11h3.192c.943 0 1.544.768 1.337 1.712-.208.944-1.14 1.711-2.083 1.711h-3.192l.746-3.423zM30.953 33.021h3.192c.943 0 1.544.768 1.336 1.712-.197.944-1.14 1.711-2.083 1.711h-3.191l.746-3.423z"/><path fill-rule="evenodd" clip-rule="evenodd" d="M48.518 19.291h.103c2.394 0 4.363 1.96 4.363 4.357v17.718a4.379 4.379 0 01-4.363 4.367h-.135l2.322 7.594-7.42-7.593H30.756a4.376 4.376 0 01-3.907-2.428c.176.01.342.02.518.02h16.384c3.109 0 5.648-2.54 5.648-5.653V22.32c0-1.11-.322-2.158-.881-3.029z"/><path fill-rule="evenodd" clip-rule="evenodd" d="M70.175 35.387c-.083 19.264-15.71 34.856-34.963 34.856C15.895 70.243.248 54.568.248 35.242c0-19.337 15.648-35 34.964-35h35.036v35.145h-.073zM35.212 3.945c17.264 0 31.253 14.014 31.253 31.297v.145c-.072 17.22-14.041 31.142-31.254 31.142-17.264 0-31.264-14.005-31.264-31.287 0-17.283 14-31.297 31.265-31.297z" stroke="#006363" stroke-width=".007"/></g><defs><clipPath id="cclip0_259_1727"><path fill="#fff" d="M0 0h70v70H0z"/></clipPath></defs></svg><svg fill="none" viewBox="0 0 70 70" id="phone-left" xmlns="http://www.w3.org/2000/svg"><g clip-path="url(#dclip0_259_1718)" fill-rule="evenodd" clip-rule="evenodd" fill="#006363"><path d="M36.613 16.7c10.22 1.616 15.061 6.463 16.137 16.155v.538c0 1.077 0 2.154 1.076 2.154 1.075 0 1.075-1.077 1.075-1.615v-.539c0-9.692-8.068-18.307-17.75-18.846-1.076 0-2.152-.538-2.69 1.077 0 1.077 1.614 1.077 2.152 1.077z"/><path d="M38.765 19.38c-1.076 0-2.151-.538-2.69 1.077 0 1.077 1.076 1.077 2.152 1.077 6.455 1.615 8.607 3.77 9.682 9.692v1.077c0 .539 0 1.616 1.076 1.077.538 0 1.076-.538 1.076-.538v-1.616c0-5.384-5.379-10.769-11.296-11.846z"/><path d="M39.303 24.229c-.537 0-1.075 0-1.613 1.076-.538 1.077.538 1.077 1.076 1.077 2.689.539 4.303 2.154 4.303 4.308 0 .538 0 1.077.537 1.077l.538.538c.538 0 .538-.538.538-.538.538 0 .538-.538.538-1.615 0-2.693-3.227-5.924-5.917-5.924zM52.213 44.163c-1.076-1.077-2.69-2.154-3.765-2.692-2.69-2.154-5.38-2.154-6.993.538-1.076 2.154-2.69 2.154-4.303 1.077-4.841-1.615-8.069-4.846-10.22-9.154-.538-1.077-.538-1.615-.538-2.154 0-1.076.538-2.153 1.614-3.23 1.075-.539 2.151-1.616 2.151-3.231 0-2.154-5.379-9.154-6.992-9.693-1.076-.538-2.152-.538-2.69 0-4.84 1.616-6.992 5.385-4.84 9.693 1.075 2.692 2.15 5.384 3.226 7.538 5.917 9.693 15.062 17.231 26.357 22.077.538 0 1.614.539 2.152.539 3.227 0 6.455-3.231 7.53-5.923 1.076-2.693-1.075-4.308-2.69-5.385z"/><path d="M69.926 35c-.538 19.385-15.599 35-34.963 35S0 54.385 0 35C0 15.615 15.599 0 34.963 0h34.963v35zM34.963 3.77c17.213 0 31.198 14 31.198 31.23S52.176 66.23 34.963 66.23 3.765 52.23 3.765 35 17.75 3.77 34.963 3.77z" stroke="#006363" stroke-width=".007"/></g><defs><clipPath id="dclip0_259_1718"><path fill="#fff" d="M0 0h70v70H0z"/></clipPath></defs></svg><svg fill="none" viewBox="0 0 70 70" id="truck" xmlns="http://www.w3.org/2000/svg"><path fill-rule="evenodd" clip-rule="evenodd" d="M46.494 63.817a1.15 1.15 0 01-1.15 1.15h-2.298a1.15 1.15 0 010-2.3h2.298c.635 0 1.15.515 1.15 1.15zm22.987 0a1.15 1.15 0 01-1.149 1.15h-18.39a1.15 1.15 0 010-2.3h18.39c.635 0 1.15.515 1.15 1.15zm-32.182 0a1.15 1.15 0 01-1.15 1.15H24.655a1.15 1.15 0 010-2.3H36.15c.635 0 1.15.515 1.15 1.15zm-18.39 0a1.15 1.15 0 01-1.15 1.15H1.668a1.15 1.15 0 010-2.3h16.091c.635 0 1.15.515 1.15 1.15zM2.817 40.824c0-.635.515-1.15 1.15-1.15H7.23l-.486-3.28a1.15 1.15 0 012.274-.338l.537 3.618h8.203a1.15 1.15 0 010 2.3H3.967a1.15 1.15 0 01-1.15-1.15zm1.15-10.347h1.792l-.487-3.28a1.15 1.15 0 012.274-.338l.538 3.618h9.675a1.15 1.15 0 010 2.3H3.967a1.15 1.15 0 010-2.3zM17.759 53.47c-.633 0-1.15-.516-1.15-1.15 0-.633.517-1.15 1.15-1.15.633 0 1.15.517 1.15 1.15 0 .634-.517 1.15-1.15 1.15zm0-4.599a3.453 3.453 0 00-3.448 3.45 3.453 3.453 0 003.448 3.448 3.453 3.453 0 003.448-3.449 3.453 3.453 0 00-3.448-3.449zm39.08 4.599c-.634 0-1.15-.516-1.15-1.15 0-.633.516-1.15 1.15-1.15.633 0 1.149.517 1.149 1.15 0 .634-.516 1.15-1.15 1.15zm0-4.599a3.453 3.453 0 00-3.449 3.45 3.453 3.453 0 003.448 3.448 3.453 3.453 0 003.448-3.449 3.453 3.453 0 00-3.448-3.449zm0 9.197a5.754 5.754 0 01-5.748-5.748 5.754 5.754 0 015.747-5.748 5.754 5.754 0 015.747 5.748 5.754 5.754 0 01-5.747 5.748zm11.156-23.805l-3.15-3.151-1.11-13.28a5.754 5.754 0 00-5.747-5.749h-8.046a1.15 1.15 0 000 2.3h8.046c1.868 0 3.448 1.579 3.451 3.544l1.046 12.55h-3.787l1.468-2.935a1.15 1.15 0 00-2.058-1.028l-1.98 3.963h-6.186a1.15 1.15 0 000 2.3h13.317l3.111 3.111c.655.656.81 2.163.813 2.637V51.17h-2.391c-.56-3.894-3.908-6.898-7.954-6.898-4.436 0-8.045 3.61-8.045 8.047 0 4.438 3.609 8.048 8.045 8.048 4.046 0 7.394-3.004 7.954-6.898h3.54a1.15 1.15 0 001.15-1.15V38.525c0-.284-.042-2.818-1.487-4.262zM17.76 58.068a5.754 5.754 0 01-5.747-5.748 5.754 5.754 0 015.747-5.748 5.754 5.754 0 015.747 5.748 5.754 5.754 0 01-5.747 5.748zM45.344 5.185H8.564a5.754 5.754 0 00-5.747 5.748c0 .058.005.114.013.17L4.356 21.28H1.668a1.15 1.15 0 000 2.3h16.091a1.15 1.15 0 000-2.3H6.68L5.117 10.854a3.453 3.453 0 013.447-3.37h35.631v43.687H25.713c-.56-3.894-3.908-6.898-7.954-6.898-4.436 0-8.045 3.61-8.045 8.047 0 4.438 3.609 8.048 8.045 8.048 4.046 0 7.394-3.004 7.954-6.898h19.631a1.15 1.15 0 001.15-1.15V6.335a1.15 1.15 0 00-1.15-1.15z" fill="#006363"/></svg></svg>