<?xml version="1.0" encoding="utf-8"?><svg viewBox="0 0 70 70" xmlns="http://www.w3.org/2000/svg" xmlns:xlink="http://www.w3.org/1999/xlink"><style>:root>svg{display:none}:root>svg:target{display:block}</style><svg viewBox="0 0 25 25" id="instagram_icon" xmlns="http://www.w3.org/2000/svg"><path d="M24.658 12.548c0 1.7-.034 3.404.01 5.103.073 3.008-1.816 5.332-4.224 6.367a7.639 7.639 0 01-3.032.635c-3.286.005-6.577.049-9.863-.015-2.476-.049-4.512-1.084-5.972-3.125C.811 20.44.444 19.218.444 17.895V7.397c0-2.856 1.392-4.854 3.863-6.152C5.38.683 6.547.444 7.764.439c3.188 0 6.381-.02 9.57.01 2.476.02 4.541.967 6.064 2.959.85 1.113 1.26 2.392 1.26 3.799v5.341zm-22.412 0v5.371c0 .801.186 1.553.6 2.232 1.09 1.782 2.735 2.651 4.776 2.686 3.276.048 6.558.019 9.839.01.806 0 1.587-.167 2.314-.514 1.983-.947 3.091-2.455 3.081-4.721-.02-3.467-.004-6.934-.004-10.4 0-.982-.279-1.88-.86-2.671-1.123-1.519-2.676-2.266-4.531-2.286-3.271-.039-6.543-.014-9.815-.01-.698 0-1.372.142-2.026.386-1.797.67-3.467 2.364-3.389 4.859.059 1.69.015 3.374.015 5.058z"/><path d="M12.578 17.725c-3.15 0-5.688-2.51-5.693-5.635-.005-3.076 2.553-5.596 5.683-5.596 3.14-.005 5.689 2.51 5.694 5.61 0 3.096-2.544 5.616-5.684 5.62zm0-1.807c2.144 0 3.882-1.714 3.877-3.823-.005-2.09-1.743-3.8-3.877-3.8-2.143 0-3.891 1.705-3.891 3.81.004 2.109 1.748 3.818 3.891 3.813zM18.92 4.785c.66 0 1.197.562 1.197 1.25-.005.689-.547 1.245-1.206 1.24-.65-.005-1.182-.561-1.182-1.235-.005-.688.533-1.255 1.192-1.255z"/></svg><svg fill="none" viewBox="0 0 70 70" id="media-right" xmlns="http://www.w3.org/2000/svg"><g clip-path="url(#bclip0_259_1727)" fill="#006363"><path d="M22.787 17.17h20.84c1.45 0 2.766.592 3.73 1.546a5.28 5.28 0 011.544 3.735v15.052a5.3 5.3 0 01-1.544 3.734 5.288 5.288 0 01-3.73 1.546H27.274l-7.482 7.614c.674-2.666 1.482-5.031 2.332-7.655a5.292 5.292 0 01-3.057-1.505 5.265 5.265 0 01-1.554-3.734V22.45c0-1.453.59-2.78 1.554-3.735a5.245 5.245 0 013.72-1.546zm20.84 1.39h-20.84a3.852 3.852 0 00-2.736 1.142 3.884 3.884 0 00-1.14 2.749v15.052c0 1.068.436 2.043 1.14 2.738a3.852 3.852 0 002.736 1.142H24l-.27.902c-.114.384-.59 1.836-1.046 3.226l3.803-3.91.207-.218h16.933a3.852 3.852 0 002.735-1.142 3.841 3.841 0 001.14-2.738V22.45a3.884 3.884 0 00-1.14-2.75 3.852 3.852 0 00-2.735-1.14z"/><path fill-rule="evenodd" clip-rule="evenodd" d="M26.177 23.01h3.202c.932 0 1.544.779 1.336 1.712-.207.944-1.14 1.722-2.082 1.722H25.44l.736-3.433zM25.243 28.05h3.191c.943 0 1.544.768 1.337 1.712-.197.944-1.14 1.712-2.083 1.712h-3.191l.746-3.423zM32.746 23.01h3.191c.943 0 1.544.779 1.337 1.712-.207.944-1.14 1.722-2.083 1.722H32l.747-3.433zM31.803 28.05h3.192c.943 0 1.544.768 1.337 1.712-.197.944-1.14 1.712-2.083 1.712h-3.192l.747-3.423zM38.736 26.07h3.191c.943 0 1.544.768 1.337 1.712-.197.944-1.14 1.712-2.083 1.712H37.99l.746-3.424zM37.802 31.11h3.192c.943 0 1.544.768 1.337 1.712-.208.944-1.14 1.711-2.083 1.711h-3.192l.746-3.423zM30.953 33.021h3.192c.943 0 1.544.768 1.336 1.712-.197.944-1.14 1.711-2.083 1.711h-3.191l.746-3.423z"/><path fill-rule="evenodd" clip-rule="evenodd" d="M48.518 19.291h.103c2.394 0 4.363 1.96 4.363 4.357v17.718a4.379 4.379 0 01-4.363 4.367h-.135l2.322 7.594-7.42-7.593H30.756a4.376 4.376 0 01-3.907-2.428c.176.01.342.02.518.02h16.384c3.109 0 5.648-2.54 5.648-5.653V22.32c0-1.11-.322-2.158-.881-3.029z"/><path fill-rule="evenodd" clip-rule="evenodd" d="M70.175 35.387c-.083 19.264-15.71 34.856-34.963 34.856C15.895 70.243.248 54.568.248 35.242c0-19.337 15.648-35 34.964-35h35.036v35.145h-.073zM35.212 3.945c17.264 0 31.253 14.014 31.253 31.297v.145c-.072 17.22-14.041 31.142-31.254 31.142-17.264 0-31.264-14.005-31.264-31.287 0-17.283 14-31.297 31.265-31.297z" stroke="#006363" stroke-width=".007"/></g><defs><clipPath id="bclip0_259_1727"><path fill="#fff" d="M0 0h70v70H0z"/></clipPath></defs></svg><svg fill="none" viewBox="0 0 70 70" id="phone-left" xmlns="http://www.w3.org/2000/svg"><g clip-path="url(#cclip0_259_1718)" fill-rule="evenodd" clip-rule="evenodd" fill="#006363"><path d="M36.613 16.7c10.22 1.616 15.061 6.463 16.137 16.155v.538c0 1.077 0 2.154 1.076 2.154 1.075 0 1.075-1.077 1.075-1.615v-.539c0-9.692-8.068-18.307-17.75-18.846-1.076 0-2.152-.538-2.69 1.077 0 1.077 1.614 1.077 2.152 1.077z"/><path d="M38.765 19.38c-1.076 0-2.151-.538-2.69 1.077 0 1.077 1.076 1.077 2.152 1.077 6.455 1.615 8.607 3.77 9.682 9.692v1.077c0 .539 0 1.616 1.076 1.077.538 0 1.076-.538 1.076-.538v-1.616c0-5.384-5.379-10.769-11.296-11.846z"/><path d="M39.303 24.229c-.537 0-1.075 0-1.613 1.076-.538 1.077.538 1.077 1.076 1.077 2.689.539 4.303 2.154 4.303 4.308 0 .538 0 1.077.537 1.077l.538.538c.538 0 .538-.538.538-.538.538 0 .538-.538.538-1.615 0-2.693-3.227-5.924-5.917-5.924zM52.213 44.163c-1.076-1.077-2.69-2.154-3.765-2.692-2.69-2.154-5.38-2.154-6.993.538-1.076 2.154-2.69 2.154-4.303 1.077-4.841-1.615-8.069-4.846-10.22-9.154-.538-1.077-.538-1.615-.538-2.154 0-1.076.538-2.153 1.614-3.23 1.075-.539 2.151-1.616 2.151-3.231 0-2.154-5.379-9.154-6.992-9.693-1.076-.538-2.152-.538-2.69 0-4.84 1.616-6.992 5.385-4.84 9.693 1.075 2.692 2.15 5.384 3.226 7.538 5.917 9.693 15.062 17.231 26.357 22.077.538 0 1.614.539 2.152.539 3.227 0 6.455-3.231 7.53-5.923 1.076-2.693-1.075-4.308-2.69-5.385z"/><path d="M69.926 35c-.538 19.385-15.599 35-34.963 35S0 54.385 0 35C0 15.615 15.599 0 34.963 0h34.963v35zM34.963 3.77c17.213 0 31.198 14 31.198 31.23S52.176 66.23 34.963 66.23 3.765 52.23 3.765 35 17.75 3.77 34.963 3.77z" stroke="#006363" stroke-width=".007"/></g><defs><clipPath id="cclip0_259_1718"><path fill="#fff" d="M0 0h70v70H0z"/></clipPath></defs></svg><svg viewBox="0 0 28 28" id="tiktok_logo" xmlns="http://www.w3.org/2000/svg"><path d="M14.62.024C16.146 0 17.665.014 19.18 0c.093 1.786.735 3.605 2.042 4.868 1.305 1.294 3.15 1.886 4.946 2.087v4.697c-1.683-.055-3.373-.405-4.9-1.13-.665-.3-1.285-.688-1.891-1.084-.008 3.409.014 6.813-.022 10.208-.091 1.631-.63 3.255-1.578 4.598-1.526 2.238-4.174 3.697-6.895 3.742-1.668.095-3.335-.36-4.757-1.198-2.356-1.39-4.014-3.933-4.256-6.663a19.51 19.51 0 01-.014-1.736 8.745 8.745 0 013.013-5.788c1.932-1.683 4.638-2.484 7.172-2.01.024 1.728-.045 3.455-.045 5.183-1.158-.375-2.51-.27-3.522.433a4.041 4.041 0 00-1.592 2.041c-.241.592-.172 1.249-.158 1.877.277 1.915 2.118 3.524 4.083 3.35 1.303-.015 2.552-.77 3.23-1.877.22-.388.466-.784.48-1.24.114-2.087.069-4.165.082-6.252.01-4.703-.014-9.393.022-14.082z"/></svg><svg viewBox="0 0 29 25" id="vk_icon" xmlns="http://www.w3.org/2000/svg"><path d="M26.611 5.747c.181-.61 0-1.06-.869-1.06h-2.876c-.732 0-1.07.386-1.25.816 0 0-1.465 3.57-3.535 5.884-.669.669-.976.883-1.343.883-.18 0-.459-.214-.459-.825V5.747c0-.732-.205-1.06-.81-1.06h-4.522c-.459 0-.732.342-.732.66 0 .693 1.035.854 1.142 2.807v4.239c0 .927-.166 1.098-.532 1.098-.976 0-3.35-3.584-4.756-7.685-.283-.796-.561-1.119-1.298-1.119H1.895c-.82 0-.987.386-.987.816 0 .762.977 4.546 4.546 9.546 2.378 3.413 5.728 5.264 8.774 5.264 1.832 0 2.056-.41 2.056-1.119 0-3.261-.166-3.569.752-3.569.425 0 1.157.215 2.866 1.86 1.953 1.954 2.276 2.828 3.37 2.828h2.876c.82 0 1.235-.41.996-1.221-.547-1.704-4.244-5.21-4.41-5.444-.424-.547-.302-.792 0-1.28.005-.005 3.516-4.946 3.877-6.62z"/></svg><svg viewBox="0 0 13 25" id="yandex_icon" xmlns="http://www.w3.org/2000/svg"><g clip-path="url(#fclip0_262_2146)"><path d="M9.766 15.598V25H12.5V0H8.416C4.404 0 1.03 2.71 1.03 7.992c0 3.768 1.492 5.81 3.729 6.937L0 25h3.16l4.333-9.402h2.273zm-.008-2.194H8.302c-2.38 0-4.333-1.302-4.333-5.352 0-4.19 2.13-5.686 4.333-5.686h1.456v11.039z"/></g><defs><clipPath id="fclip0_262_2146"><path fill="#fff" d="M0 0h12.5v25H0z"/></clipPath></defs></svg><svg viewBox="0 0 27 19" id="youtube" xmlns="http://www.w3.org/2000/svg"><path d="M23.661.425S20.811 0 13.397 0C5.957 0 3.339.425 3.339.425 1.495.425 0 1.96 0 3.85v11.3c0 1.891 1.495 3.425 3.339 3.425 0 0 2.618.425 10.066.425 7.405 0 10.256-.425 10.256-.425 1.843 0 3.339-1.534 3.339-3.425V3.85C27 1.959 25.505.425 23.661.425zM9.413 14.923V4.138l9.105 5.392-9.105 5.393z"/></svg></svg>